<svg xmlns="http://www.w3.org/2000/svg" width="72" height="68" viewBox="0 0 72 68" preserveAspectRatio="none">
  <defs>
    <linearGradient id="left-fill" x1="15" y1="10" x2="61" y2="58" gradientUnits="userSpaceOnUse">
      <stop offset="0" stop-color="#416b9a"/>
      <stop offset="0.48" stop-color="#2d567e"/>
      <stop offset="1" stop-color="#183d63"/>
    </linearGradient>
    <linearGradient id="left-edge" x1="7" y1="6" x2="57" y2="64" gradientUnits="userSpaceOnUse">
      <stop offset="0" stop-color="#fff4c8"/>
      <stop offset="0.18" stop-color="#d8b05f"/>
      <stop offset="0.54" stop-color="#876237"/>
      <stop offset="0.78" stop-color="#f3d58a"/>
      <stop offset="1" stop-color="#7a542c"/>
    </linearGradient>
    <linearGradient id="left-ink" x1="18" y1="8" x2="50" y2="62" gradientUnits="userSpaceOnUse">
      <stop offset="0" stop-color="#6c91bc" stop-opacity="0.7"/>
      <stop offset="0.42" stop-color="#1f4268" stop-opacity="0.1"/>
      <stop offset="1" stop-color="#102e50" stop-opacity="0.6"/>
    </linearGradient>
    <radialGradient id="left-glow" cx="31" cy="17" r="34" gradientUnits="userSpaceOnUse">
      <stop offset="0" stop-color="#7eb2dd" stop-opacity="0.72"/>
      <stop offset="0.42" stop-color="#416f9a" stop-opacity="0.2"/>
      <stop offset="1" stop-color="#163a60" stop-opacity="0"/>
    </radialGradient>
    <filter id="left-shadow" x="-20%" y="-20%" width="145%" height="150%">
      <feDropShadow dx="0" dy="2" stdDeviation="1.8" flood-color="#3f2d18" flood-opacity="0.38"/>
    </filter>
    <filter id="left-texture" x="0" y="0" width="100%" height="100%">
      <feTurbulence type="fractalNoise" baseFrequency="0.08 0.16" numOctaves="2" seed="21"/>
      <feColorMatrix type="matrix" values="0 0 0 0 0.84 0 0 0 0 0.95 0 0 0 0 1 0 0 0 0.14 0"/>
    </filter>
  </defs>

  <g filter="url(#left-shadow)">
    <path d="M12 10 C16 6 23 4 31 6 L72 8 L72 60 L30 62 C22 63 15 61 11 57 L8 51 C5 51 2 49 1 45 C4 43 5 40 5 37 C2 35 1 32 3 29 C5 27 6 24 5 21 C3 18 5 14 9 14 Z" fill="#f1dfaa"/>
    <path d="M72 8 L31 6 C23 4 16 6 12 10 L9 14 C5 14 3 18 5 21 C6 24 5 27 3 29 C1 32 2 35 5 37 C5 40 4 43 1 45 C2 49 5 51 8 51 L11 57 C15 61 22 63 30 62 L72 60" fill="none" stroke="url(#left-edge)" stroke-linecap="round" stroke-linejoin="round" stroke-width="2.4"/>
    <path d="M14 17 C18 13 24 12 31 13 L72 13 L72 55 L31 56 C24 56 18 54 14 51 L12 46 C9 45 7 43 7 40 C10 38 11 36 10 34 C8 32 8 29 11 27 C11 24 10 21 12 19 Z" fill="url(#left-fill)"/>
    <path d="M72 13 L31 13 C24 12 18 13 14 17 L12 19 C10 21 11 24 11 27 C8 29 8 32 10 34 C11 36 10 38 7 40 C7 43 9 45 12 46 L14 51 C18 54 24 56 31 56 L72 55" fill="none" stroke="#4e3320" stroke-linecap="round" stroke-linejoin="round" stroke-opacity="0.54" stroke-width="1.2"/>
    <path d="M16 20 C20 16 25 15 32 16 L72 16 L72 52 L32 53 C25 53 20 51 16 48" fill="url(#left-glow)" opacity="0.8"/>
    <path d="M15 19 C20 15 27 14 36 15 L72 15" fill="none" stroke="#9fc2df" stroke-opacity="0.62" stroke-width="1"/>
    <path d="M16 50 C22 54 30 55 40 54 L72 54" fill="none" stroke="#0e2b4d" stroke-opacity="0.55" stroke-width="1.4"/>
    <path d="M13 18 C8 22 10 26 15 27 C9 29 8 34 14 36 C8 39 9 44 16 45" fill="none" stroke="#f5dfa0" stroke-linecap="round" stroke-width="1.5"/>
    <path d="M14 18 C8 21 8 26 14 29 M13 39 C8 42 10 47 17 49" fill="none" stroke="#9c6d34" stroke-linecap="round" stroke-width="1.1"/>
    <path d="M6 28 C13 25 16 20 17 11 C21 16 20 23 16 28" fill="none" stroke="url(#left-edge)" stroke-linecap="round" stroke-linejoin="round" stroke-width="2"/>
    <path d="M7 43 C14 44 17 49 18 57 C22 52 21 46 16 42" fill="none" stroke="url(#left-edge)" stroke-linecap="round" stroke-linejoin="round" stroke-width="2"/>
    <path d="M24 9 L28 13 L34 11 L31 16 L34 21 L28 19 L24 23 L25 17 L20 14 L26 13 Z" fill="#f7e6ae" stroke="#8d632f" stroke-width="0.7" opacity="0.72"/>
    <path d="M22 57 L27 53 L33 55 L29 50 L32 45 L26 47 L22 43 L23 49 L18 52 L24 53 Z" fill="#f7e6ae" stroke="#8d632f" stroke-width="0.7" opacity="0.58"/>
    <path d="M15 17 C19 13 26 11 34 12 L72 12 L72 15 L35 15 C27 14 21 15 17 19 Z" fill="#fff3c7" opacity="0.35"/>
    <path d="M13 17 C18 13 24 12 31 13 L72 13 L72 55 L31 56 C24 56 18 54 14 51 L12 46 C9 45 7 43 7 40 C10 38 11 36 10 34 C8 32 8 29 11 27 C11 24 10 21 13 17 Z" filter="url(#left-texture)" opacity="0.42"/>
    <path d="M16 21 C20 17 26 16 34 17 L72 17 M17 48 C23 52 31 53 41 52 L72 52" fill="none" stroke="#d7b56f" stroke-opacity="0.5" stroke-width="0.8"/>
  </g>
</svg>
