<svg xmlns="http://www.w3.org/2000/svg" width="72" height="68" viewBox="0 0 72 68" preserveAspectRatio="none">
  <defs>
    <linearGradient id="right-fill" x1="57" y1="10" x2="11" y2="58" gradientUnits="userSpaceOnUse">
      <stop offset="0" stop-color="#416b9a"/>
      <stop offset="0.48" stop-color="#2d567e"/>
      <stop offset="1" stop-color="#183d63"/>
    </linearGradient>
    <linearGradient id="right-edge" x1="65" y1="6" x2="15" y2="64" gradientUnits="userSpaceOnUse">
      <stop offset="0" stop-color="#fff4c8"/>
      <stop offset="0.18" stop-color="#d8b05f"/>
      <stop offset="0.54" stop-color="#876237"/>
      <stop offset="0.78" stop-color="#f3d58a"/>
      <stop offset="1" stop-color="#7a542c"/>
    </linearGradient>
    <radialGradient id="right-glow" cx="41" cy="17" r="34" gradientUnits="userSpaceOnUse">
      <stop offset="0" stop-color="#7eb2dd" stop-opacity="0.72"/>
      <stop offset="0.42" stop-color="#416f9a" stop-opacity="0.2"/>
      <stop offset="1" stop-color="#163a60" stop-opacity="0"/>
    </radialGradient>
    <filter id="right-shadow" x="-25%" y="-20%" width="145%" height="150%">
      <feDropShadow dx="0" dy="2" stdDeviation="1.8" flood-color="#3f2d18" flood-opacity="0.38"/>
    </filter>
    <filter id="right-texture" x="0" y="0" width="100%" height="100%">
      <feTurbulence type="fractalNoise" baseFrequency="0.08 0.16" numOctaves="2" seed="22"/>
      <feColorMatrix type="matrix" values="0 0 0 0 0.84 0 0 0 0 0.95 0 0 0 0 1 0 0 0 0.14 0"/>
    </filter>
  </defs>

  <g filter="url(#right-shadow)">
    <path d="M60 10 C56 6 49 4 41 6 L0 8 L0 60 L42 62 C50 63 57 61 61 57 L64 51 C67 51 70 49 71 45 C68 43 67 40 67 37 C70 35 71 32 69 29 C67 27 66 24 67 21 C69 18 67 14 63 14 Z" fill="#f1dfaa"/>
    <path d="M0 8 L41 6 C49 4 56 6 60 10 L63 14 C67 14 69 18 67 21 C66 24 67 27 69 29 C71 32 70 35 67 37 C67 40 68 43 71 45 C70 49 67 51 64 51 L61 57 C57 61 50 63 42 62 L0 60" fill="none" stroke="url(#right-edge)" stroke-linecap="round" stroke-linejoin="round" stroke-width="2.4"/>
    <path d="M58 17 C54 13 48 12 41 13 L0 13 L0 55 L41 56 C48 56 54 54 58 51 L60 46 C63 45 65 43 65 40 C62 38 61 36 62 34 C64 32 64 29 61 27 C61 24 62 21 60 19 Z" fill="url(#right-fill)"/>
    <path d="M0 13 L41 13 C48 12 54 13 58 17 L60 19 C62 21 61 24 61 27 C64 29 64 32 62 34 C61 36 62 38 65 40 C65 43 63 45 60 46 L58 51 C54 54 48 56 41 56 L0 55" fill="none" stroke="#4e3320" stroke-linecap="round" stroke-linejoin="round" stroke-opacity="0.54" stroke-width="1.2"/>
    <path d="M56 20 C52 16 47 15 40 16 L0 16 L0 52 L40 53 C47 53 52 51 56 48" fill="url(#right-glow)" opacity="0.8"/>
    <path d="M57 19 C52 15 45 14 36 15 L0 15" fill="none" stroke="#9fc2df" stroke-opacity="0.62" stroke-width="1"/>
    <path d="M56 50 C50 54 42 55 32 54 L0 54" fill="none" stroke="#0e2b4d" stroke-opacity="0.55" stroke-width="1.4"/>
    <path d="M59 18 C64 22 62 26 57 27 C63 29 64 34 58 36 C64 39 63 44 56 45" fill="none" stroke="#f5dfa0" stroke-linecap="round" stroke-width="1.5"/>
    <path d="M58 18 C64 21 64 26 58 29 M59 39 C64 42 62 47 55 49" fill="none" stroke="#9c6d34" stroke-linecap="round" stroke-width="1.1"/>
    <path d="M66 28 C59 25 56 20 55 11 C51 16 52 23 56 28" fill="none" stroke="url(#right-edge)" stroke-linecap="round" stroke-linejoin="round" stroke-width="2"/>
    <path d="M65 43 C58 44 55 49 54 57 C50 52 51 46 56 42" fill="none" stroke="url(#right-edge)" stroke-linecap="round" stroke-linejoin="round" stroke-width="2"/>
    <path d="M48 9 L44 13 L38 11 L41 16 L38 21 L44 19 L48 23 L47 17 L52 14 L46 13 Z" fill="#f7e6ae" stroke="#8d632f" stroke-width="0.7" opacity="0.72"/>
    <path d="M50 57 L45 53 L39 55 L43 50 L40 45 L46 47 L50 43 L49 49 L54 52 L48 53 Z" fill="#f7e6ae" stroke="#8d632f" stroke-width="0.7" opacity="0.58"/>
    <path d="M57 17 C53 13 46 11 38 12 L0 12 L0 15 L37 15 C45 14 51 15 55 19 Z" fill="#fff3c7" opacity="0.35"/>
    <path d="M59 17 C54 13 48 12 41 13 L0 13 L0 55 L41 56 C48 56 54 54 58 51 L60 46 C63 45 65 43 65 40 C62 38 61 36 62 34 C64 32 64 29 61 27 C61 24 62 21 59 17 Z" filter="url(#right-texture)" opacity="0.42"/>
    <path d="M56 21 C52 17 46 16 38 17 L0 17 M55 48 C49 52 41 53 31 52 L0 52" fill="none" stroke="#d7b56f" stroke-opacity="0.5" stroke-width="0.8"/>
  </g>
</svg>
